<?xml version="1.0" encoding="UTF-8"?>
<svg id="Layer_1" data-name="Layer 1" xmlns="http://www.w3.org/2000/svg" viewBox="0 0 512 512">
  <defs>
    <style>
      .cls-1 {
        fill: #2474ba;
      }
    </style>
  </defs>
  <g>
    <polygon class="cls-1" points="396.12 395.82 394.81 394.52 274.68 394.52 373.34 493.17 383.69 503.53 503.82 503.53 470.58 470.28 396.12 395.82"/>
    <polygon class="cls-1" points="404.84 404.31 503.82 404.31 476.43 376.91 415.08 315.56 414 314.49 315.03 314.49 396.31 395.77 404.84 404.31"/>
  </g>
  <path class="cls-1" d="M278.41,415.16c-7.31,1.07-14.79,1.64-22.41,1.64-84.59,0-153.16-68.57-153.16-153.15s68.57-153.16,153.16-153.16,153.16,68.57,153.16,153.16c0,7.45-.54,14.77-1.57,21.94l73.73,73.73c14.44-31.45,22.51-66.44,22.51-103.31,0-136.87-110.95-247.82-247.82-247.82S8.18,119.13,8.18,256s110.95,247.82,247.82,247.82c32.89,0,64.28-6.42,93.01-18.06-16.49-16.49-46.65-46.65-70.6-70.6Z"/>
</svg>